<?xml version="1.0" encoding="UTF-8"?>
<svg width="173px" height="36px" viewBox="0 0 173 36" version="1.1" xmlns="http://www.w3.org/2000/svg" xmlns:xlink="http://www.w3.org/1999/xlink">
    <!-- Generator: Sketch 59.1 (86144) - https://sketch.com -->
    <title>Masterclass logo@3x</title>
    <desc>Created with Sketch.</desc>
    <g id="Page-1" stroke="none" stroke-width="1" fill="none" fill-rule="evenodd">
        <g id="Desktop-HD" transform="translate(-29.000000, -23.000000)" fill="#FFFFFF">
            <g id="Masterclass-logo" transform="translate(29.000000, 23.000000)">
                <path d="M73.1654976,2.89830172 L73.1654976,2.94235345 L73.1805672,2.94235345 L73.175971,2.95427155 L73.1654976,2.97252586 L73.1654976,11.0418362 C73.6537554,10.6556293 74.074501,10.2748534 74.5410585,9.96226724 C76.2529749,8.81631897 78.1806892,8.52847414 80.1855603,8.63106034 C82.0801213,8.72821552 83.7926404,9.3304569 85.206177,10.6345086 C86.6793895,11.9952845 87.4190098,13.7289914 87.6269714,15.6968362 C87.7053338,16.4348534 87.7143756,17.1825259 87.716184,17.9259741 C87.7183713,18.7920128 87.7195665,19.2036469 87.7202196,19.3739716 C87.7206612,19.1166217 87.7210145,19.1461133 87.7211899,19.2368706 L87.7198007,20.4785603 C87.7354732,20.6010603 87.7589819,20.7410603 87.7849017,20.926319 C87.8704976,21.5472672 88.0398808,22.1525259 88.2936544,22.7390776 C89.2273721,24.9018362 91.27263,25.5819224 93.2913652,25.3381293 C95.469839,25.0762328 96.6760167,23.4070948 97.0587868,21.21175 C97.1907972,20.4562328 97.2348007,19.677181 97.2402258,18.9083879 C97.2530852,16.8369511 97.2522815,14.7652462 97.2503169,12.6936306 L97.248062,9.58631897 L97.248062,9.08726724 L102.416362,9.08787069 L102.416362,11.8058017 C103.303062,10.7051121 104.29947,9.80597414 105.617766,9.30028448 C106.803613,8.84550392 108.028816,8.7069103 109.302432,8.71357952 L109.685978,8.71976724 L109.685978,13.6143362 C108.989759,13.7211466 108.294142,13.7826983 107.620226,13.9383879 C105.470083,14.4362328 104.032435,15.7789052 103.191546,17.7944224 C102.684602,19.0097672 102.459762,20.289681 102.44409,21.5943362 C102.423193,23.3028994 102.423193,25.0117308 102.424443,26.7206517 L102.424801,29.6576121 L97.469285,29.6576121 L97.469285,29.6564052 L97.2474592,29.6564052 L97.2474592,27.7030431 C96.7893408,28.0940776 96.3951178,28.4778707 95.9538774,28.7983017 C94.5964,29.78675 93.0387972,30.1095948 91.3913791,30.1174397 C88.8524383,30.1295086 86.6064523,29.3890776 84.8336544,27.5057155 C83.4990829,26.0882155 82.7835742,24.3587328 82.7564488,22.4270948 C82.7299261,20.5383017 82.7202815,20.7670086 82.7172676,21.2690776 L82.7165047,20.7749383 C82.7163634,20.7123966 82.7162127,20.6472241 82.716062,20.5793362 C82.716062,20.5133592 82.7208843,20.4473822 82.7262424,20.372644 L82.7341456,20.2528707 L82.7407763,20.2528707 C82.7365568,20.0959741 82.7299261,19.7737328 82.7214871,19.1811466 C82.7070202,18.2222672 82.5689819,17.2380431 82.3061666,16.317181 C81.7913861,14.5152845 80.4405394,13.4936466 78.5785289,13.359681 C77.0420237,13.2498534 75.6471735,13.6137328 74.5760202,14.7952845 C73.6754557,15.7885603 73.2553129,17.0135603 73.2269819,18.3248534 C73.1654976,21.1158017 73.18117,23.9091638 73.1685115,26.701319 C73.1656985,27.3498247 73.1663683,27.9983305 73.1671273,28.6554186 L73.1679087,29.6485603 L68.203954,29.6485603 L68.203954,8.20080172 C64.0230202,12.4689914 58.7130655,17.7666638 58.6202362,17.6737328 C61.5726892,21.6751983 64.4950028,25.6362328 67.4601143,29.6539914 C67.2684279,29.66425 67.1478704,29.676319 67.0273129,29.676319 C65.2533094,29.6775259 63.4799087,29.6702845 61.706508,29.6847672 C61.428623,29.6865776 61.275515,29.5948534 61.119393,29.372181 C59.2338739,26.6826121 57.3375045,24.0002845 55.4429436,21.3173534 C55.3694035,21.2135603 55.2892328,21.1145948 55.2530655,21.0675259 C54.4531666,21.8314914 53.6544732,22.5839914 52.8744662,23.3551983 C52.7840481,23.4445086 52.7707868,23.6412328 52.770184,23.7890776 L52.7695196,24.0864799 C52.7686429,24.5827177 52.76782,25.4609241 52.7672669,26.5190589 L52.7665672,29.6600259 L47.7742815,29.6600259 C47.7742815,29.4608879 47.7748843,29.2786466 47.7742815,29.0970086 L47.7660686,23.6184526 C47.761623,21.7924181 47.7513756,19.9665345 47.7230446,18.1408017 C47.7115916,17.402181 47.5186997,16.6327845 47.2534732,15.9376121 C46.6018599,14.2286466 45.2479993,13.4501983 43.4697763,13.3518362 C41.1512347,13.2229195 39.4297608,14.6148112 38.7044699,16.6063047 L38.6330098,16.8144224 L38.6330098,29.6425259 L33.7263199,29.6425259 L33.7263199,27.6958017 C33.2103338,28.0898534 32.7721073,28.4700259 32.2904801,28.7850259 C30.4363059,29.9985603 28.3820063,30.2755431 26.2204105,30.0474397 C24.7574453,29.8929569 23.3638007,29.5115776 22.07263,28.80675 C20.8694662,28.1501983 19.8833059,27.3379569 19.1039017,26.3833017 C17.7174906,27.9758017 15.853069,29.0716638 13.5172676,29.6364914 C10.8101491,30.2900259 8.12955331,30.0486466 5.64004111,28.6432155 C5.4822615,28.5545086 5.33431485,28.4488297 5.16110764,28.3284701 L4.97818049,28.2033017 L4.97818049,35.2370948 L0.000361672474,35.2370948 L0.000361672474,8.90502586 L4.95527456,8.90502586 L4.95527456,10.9169224 C5.68344181,10.4347672 6.34590523,9.90976724 7.08190871,9.52416379 C10.8107519,7.57080172 16.3377101,8.12416379 19.3522502,11.784681 C19.4131317,11.8595086 19.4667798,11.93675 19.5252502,12.0127845 C20.8658495,10.4414052 22.6380446,9.40830172 24.8110934,8.89838793 C26.8183756,8.42830172 28.8310829,8.48019828 30.8070202,9.13312931 C31.8226166,9.46889799 32.6923384,10.0272678 33.4914023,10.8788898 L33.7076334,11.1184741 L33.7076334,9.08787069 L38.6330098,9.08787069 L38.6330098,10.7352845 C38.7053443,10.6664914 38.777076,10.6007155 38.8500132,10.5391638 C40.1586648,9.43425 41.6915533,8.88631897 43.3763443,8.70709483 C44.9526334,8.53933621 46.5090307,8.55080172 48.0238355,9.10416379 C50.2264209,9.90856034 51.5796787,11.4968362 52.2915707,13.6897672 C52.5858817,14.5963728 52.7057422,15.5260792 52.7456463,16.4643328 L52.7573617,16.8491207 L52.7583239,16.3663853 L52.7583617,16.3573017 L52.7593338,16.9785603 L52.7606712,17.0555094 L52.7635533,17.2869224 L52.7635533,17.4504569 C52.9052084,17.3291638 52.9889958,17.2682155 53.0577136,17.1945948 C55.4935777,14.5943362 64.8150829,5.86968103 67.2400969,3.25916379 C67.4643338,3.01718103 67.6837484,2.92002586 68.0098564,2.92243966 L68.105549,2.9230431 L68.203954,2.92364655 L68.203954,2.89830172 L73.1654976,2.89830172 Z M116.231286,9.07537931 L116.231286,29.6571897 L111.304101,29.6571897 L111.304101,9.07598276 L116.231286,9.07537931 Z M145.972578,21.1784397 C146.402968,21.1784397 146.809247,21.2255086 147.190811,21.3196466 C147.571773,21.4137845 147.93887,21.5549914 148.292707,21.7426638 L148.193247,23.5349052 L148.02748,23.5349052 L147.447599,22.5060259 C147.237226,22.1409397 147.029867,21.8838707 146.826125,21.734819 C146.621177,21.5851638 146.314961,21.5103362 145.905668,21.5103362 C145.530132,21.5103362 145.176898,21.6159397 144.845365,21.8253362 C144.514435,22.0359397 144.348066,22.3346466 144.348066,22.7214569 C144.348066,23.0974052 144.489118,23.3961121 144.77062,23.6175776 C145.052724,23.8390431 145.469853,24.0436121 146.022006,24.2312845 L146.768257,24.447319 C147.563334,24.6905086 148.132968,25.0254224 148.474748,25.4508534 C148.817132,25.8768879 148.988323,26.3880086 148.988323,26.9854224 C148.988323,27.7934397 148.671257,28.4403362 148.035316,28.927319 C147.400581,29.4136983 146.508456,29.6568879 145.35894,29.6568879 C144.81824,29.6568879 144.33179,29.5935259 143.900797,29.4661983 C143.469804,29.3394741 143.071964,29.1813707 142.707881,28.9930948 L142.724156,27.0186121 L142.88932,27.0186121 L143.452926,28.0143017 C143.695849,28.4572328 143.964693,28.7861121 144.257045,29.0015431 C144.549397,29.2175776 144.922522,29.3249914 145.375818,29.3249914 C145.905668,29.3249914 146.333647,29.2067155 146.660358,28.9683534 C146.985863,28.7305948 147.149219,28.4125776 147.149219,28.0143017 C147.149219,27.6492155 147.032881,27.3505086 146.80141,27.1187845 C146.569337,26.8864569 146.138344,26.6764569 145.508431,26.488181 L144.812212,26.2721466 C144.138295,26.0736121 143.607843,25.7634397 143.221456,25.3434397 C142.834466,24.9228362 142.640971,24.4086983 142.640971,23.799819 C142.640971,23.07025 142.928501,22.4511121 143.502957,21.9418017 C144.077414,21.4336983 144.900822,21.1784397 145.972578,21.1784397 Z M153.198372,21.1784397 C153.628762,21.1784397 154.035041,21.2255086 154.416605,21.3196466 C154.797567,21.4137845 155.164664,21.5549914 155.518501,21.7426638 L155.419041,23.5349052 L155.253274,23.5349052 L154.673393,22.5060259 C154.46302,22.1409397 154.255661,21.8838707 154.051919,21.734819 C153.846971,21.5851638 153.540755,21.5103362 153.131462,21.5103362 C152.755926,21.5103362 152.402692,21.6159397 152.070556,21.8253362 C151.740229,22.0359397 151.57386,22.3346466 151.57386,22.7214569 C151.57386,23.0974052 151.714912,23.3961121 151.996414,23.6175776 C152.278518,23.8390431 152.695647,24.0436121 153.2478,24.2312845 L153.994051,24.447319 C154.789128,24.6905086 155.358159,25.0254224 155.700543,25.4508534 C156.042926,25.8768879 156.214117,26.3880086 156.214117,26.9854224 C156.214117,27.7934397 155.896448,28.4403362 155.26111,28.927319 C154.626375,29.4136983 153.733647,29.6568879 152.584734,29.6568879 C152.044034,29.6568879 151.557584,29.5935259 151.125989,29.4661983 C150.695598,29.3394741 150.297759,29.1813707 149.933675,28.9930948 L149.94995,27.0186121 L150.115114,27.0186121 L150.67872,28.0143017 C150.921644,28.4572328 151.190487,28.7861121 151.482839,29.0015431 C151.775191,29.2175776 152.147713,29.3249914 152.601009,29.3249914 C153.131462,29.3249914 153.559441,29.2067155 153.886152,28.9683534 C154.211657,28.7305948 154.375013,28.4125776 154.375013,28.0143017 C154.375013,27.6492155 154.258675,27.3505086 154.027205,27.1187845 C153.820917,26.9122711 153.457459,26.7233992 152.936406,26.5517451 L152.038006,26.2721466 C151.36409,26.0736121 150.833637,25.7634397 150.446647,25.3434397 C150.06026,24.9228362 149.866766,24.4086983 149.866766,23.799819 C149.866766,23.07025 150.154295,22.4511121 150.728752,21.9418017 C151.303208,21.4336983 152.126013,21.1784397 153.198372,21.1784397 Z M125.88559,21.1784397 C126.52575,21.1784397 127.068259,21.2840431 127.509499,21.4940431 C127.951945,21.7040431 128.288903,21.9780086 128.520977,22.3147328 C128.75305,22.6526638 128.868785,23.0038707 128.868785,23.3689569 C128.868785,23.6785259 128.77475,23.9193017 128.58668,24.090681 C128.399214,24.2620603 128.15629,24.34775 127.85791,24.34775 C127.537228,24.34775 127.277426,24.2312845 127.078506,23.9995603 C126.879586,23.7666293 126.764454,23.4624914 126.730698,23.0865431 C126.719848,22.8433534 126.725273,22.6363707 126.746973,22.4649914 C126.769879,22.2930086 126.769879,22.1192155 126.746973,21.9418017 C126.70297,21.7541293 126.633649,21.629819 126.540217,21.5688707 C126.446182,21.5079224 126.316583,21.4771466 126.150816,21.4771466 C125.4769,21.4771466 124.954886,21.7704224 124.584775,22.3563707 C124.21406,22.9435259 124.029607,23.8776638 124.029607,25.1605948 C124.029607,26.278181 124.236363,27.1326638 124.651081,27.7240431 C125.065196,28.3154224 125.703548,28.6117155 126.564931,28.6117155 C127.084534,28.6117155 127.504074,28.5175776 127.824757,28.3299052 C128.14544,28.1416293 128.45467,27.859819 128.75305,27.4832672 L128.918816,27.6166293 C128.642137,28.2689569 128.216569,28.7722328 127.642715,29.1258534 C127.068259,29.4800776 126.388315,29.6568879 125.604088,29.6568879 C124.852412,29.6568879 124.170057,29.4933534 123.557022,29.1674914 C122.943987,28.8410259 122.456935,28.3661121 122.098879,27.7409397 C121.739618,27.1163707 121.559987,26.3499914 121.559987,25.4424052 C121.559987,24.5468879 121.755893,23.7811121 122.148308,23.1444741 C122.540722,22.5084397 123.065147,22.0226638 123.722789,21.6847328 C124.38043,21.3474052 125.100761,21.1784397 125.88559,21.1784397 Z M137.852066,21.1785603 C138.83461,21.1785603 139.594122,21.4193362 140.130603,21.9002845 C140.665878,22.3812328 140.934118,23.1645086 140.934118,24.2483017 L140.934118,27.9148534 C140.934118,28.4126983 141.166794,28.661319 141.630338,28.661319 L141.995024,28.661319 L142.144516,28.794681 C141.934143,29.0595948 141.705084,29.2647672 141.456132,29.4083879 C141.207784,29.5514052 140.856962,29.623819 140.404268,29.623819 C139.917216,29.623819 139.534446,29.5103707 139.252341,29.2840776 C138.970237,29.057181 138.784578,28.7554569 138.697174,28.3795086 C138.365641,28.7337328 138.026272,29.0348534 137.677258,29.2840776 C137.329449,29.5326983 136.879167,29.6570086 136.326411,29.6570086 C135.686251,29.6570086 135.147359,29.4747672 134.710941,29.109681 C134.274523,28.7445948 134.056916,28.2189914 134.056916,27.5328707 C134.056916,27.0133017 134.32154,26.5353707 134.851993,26.0984741 C135.382446,25.6609741 136.216704,25.3320948 137.354164,25.1112328 C137.531383,25.0780431 137.7297,25.0418362 137.951526,25.0032155 C138.172146,24.9645948 138.40422,24.9229569 138.647143,24.8783017 L138.647143,23.5676121 C138.647143,22.8157155 138.556122,22.2876983 138.37408,21.9835603 C138.191436,21.6794224 137.90692,21.5273534 137.520533,21.5273534 C137.254704,21.5273534 137.044934,21.6130431 136.89062,21.783819 C136.735704,21.9558017 136.636244,22.2514914 136.59224,22.6720948 L136.559087,22.8543362 C136.536784,23.3298534 136.421049,23.6786466 136.211279,23.8995086 C136.000906,24.1209741 135.741707,24.2314052 135.432477,24.2314052 C135.144345,24.2314052 134.907449,24.1433017 134.71938,23.9664914 C134.53131,23.7890776 134.437275,23.551319 134.437275,23.2526121 C134.437275,22.798819 134.595206,22.4174397 134.910463,22.1078707 C135.224516,21.7983017 135.642247,21.5659741 136.161247,21.4108879 C136.680247,21.2564052 137.244456,21.1785603 137.852066,21.1785603 Z M132.39907,17.7778879 L132.59799,17.9269397 L132.531683,20.2496121 L132.531683,25.9238362 C132.531683,26.3335776 132.534697,26.7396983 132.53952,27.1434052 C132.544945,27.5477155 132.547959,27.9478017 132.547959,28.3460776 C132.547959,28.5675431 132.591962,28.7473707 132.680572,28.8855603 C132.769182,29.02375 132.91807,29.1257328 133.128443,29.1927155 L133.343035,29.2421983 L133.343035,29.4081466 L129.382722,29.4081466 L129.382722,29.2421983 L129.581641,29.175819 C129.978878,29.0430603 130.177798,28.766681 130.177798,28.3460776 L130.177798,19.4699569 C130.177798,19.2484914 130.133795,19.0795259 130.045788,18.9636638 C129.957178,18.8478017 129.802262,18.7621121 129.581641,18.7065948 L129.366446,18.6565086 L129.366446,18.4905603 L132.39907,17.7778879 Z M138.647143,25.2103793 L138.481376,25.2437953 L138.31561,25.2767586 L138.199674,25.2990639 L138.072485,25.321235 L138.072485,25.321235 L137.934045,25.3431379 L137.722506,25.4054233 C137.38034,25.5186358 137.090194,25.6788223 136.852286,25.885323 L136.715812,26.0147759 L136.609204,26.1381622 C136.410179,26.3950048 136.296301,26.7122678 136.267827,27.089951 L136.260707,27.2838276 L136.265624,27.4488801 C136.288567,27.8215283 136.391814,28.1068556 136.575362,28.3048621 C136.755165,28.4993448 136.96774,28.6104778 137.212707,28.6382611 L137.337889,28.6452069 L137.468722,28.6388441 C137.597999,28.6261283 137.722544,28.5943821 137.841838,28.5438662 L137.959362,28.4871034 L138.0795,28.4171469 C138.204031,28.340229 138.341713,28.2424124 138.492284,28.1235669 L138.647143,27.9977069 L138.647143,25.2103793 Z M14.4190376,14.1652845 C12.6846726,14.1652845 11.2599325,15.4895241 11.097545,17.1831448 L11.0850202,17.3659741 L11.025947,17.3931293 C10.9662711,15.6002845 9.49667526,14.1652845 7.69132683,14.1652845 C5.84860557,14.1652845 4.35429547,15.6612328 4.35429547,17.5059741 C4.35429547,21.9600259 11.1350516,25.6036466 11.1350516,25.6036466 C11.1350516,25.6036466 17.756069,21.6583017 17.756069,17.5059741 C17.756069,15.6612328 16.2623617,14.1652845 14.4190376,14.1652845 Z M24.8496718,13.9220948 C21.6844348,15.6370948 21.1503652,20.208819 22.6356334,22.7348534 C23.8164941,24.7425259 25.6989993,25.4829569 27.7948913,25.5626121 C29.4615986,25.5378707 30.8835742,25.1401983 31.9734139,24.0177845 C33.8595359,22.0758879 34.2609923,19.7164052 33.5237833,17.1939914 C32.3808983,13.2824397 27.8328669,12.3048534 24.8496718,13.9220948 Z M82.7175087,21.2692586 L82.717408,22.0568101 C82.7173695,22.0659144 82.7173285,22.0731356 82.7172856,22.0785893 L82.7164499,22.066609 C82.7163722,22.0556368 82.7162982,22.0412984 82.7162307,22.0240734 L82.7177045,21.837122 L82.7177045,21.837122 L82.7175087,21.2692586 L82.7175087,21.2692586 Z M161.733722,8.83128448 C162.451039,8.83128448 163.064676,8.97792241 163.573429,9.27119828 C164.081579,9.56447414 164.470979,9.96275 164.741028,10.4654224 C165.01168,10.9693017 165.147307,11.5413707 165.147307,12.1828362 C165.147307,12.3047328 165.141882,12.4290431 165.131032,12.5563707 C165.120182,12.6830948 165.097878,12.7965431 165.064725,12.8967155 L160.126087,12.8967155 C160.136938,14.0909397 160.349722,14.9508534 160.764439,15.4764569 C161.178554,16.0020603 161.794603,16.2645603 162.61138,16.2645603 C163.164136,16.2645603 163.611405,16.1764569 163.954391,15.9990431 C164.296171,15.8222328 164.616854,15.5621466 164.915234,15.2187845 L165.081603,15.3684397 C164.738617,15.9767155 164.28291,16.4528362 163.713878,16.7949914 C163.144847,17.13775 162.462492,17.3097328 161.667415,17.3097328 C160.882586,17.3097328 160.186969,17.1413707 159.579359,16.8040431 C158.971147,16.4661121 158.49615,15.9821466 158.153767,15.3521466 C157.810781,14.7209397 157.640192,13.9696466 157.640192,13.09525 C157.640192,12.1888707 157.838509,11.4170603 158.236349,10.7810259 C158.634189,10.1449914 159.145352,9.66102586 159.769237,9.32912931 C160.393122,8.99723276 161.047749,8.83128448 161.733722,8.83128448 Z M154.955075,6.75753448 L154.905044,9.0802069 L156.761629,9.0802069 L156.761629,9.41210345 L154.888769,9.41210345 L154.888769,15.3850345 C154.888769,15.7724483 154.974364,16.0651207 155.145556,16.2642586 C155.316748,16.4633966 155.534957,16.5629655 155.800786,16.5629655 C156.032859,16.5629655 156.236601,16.5050345 156.413218,16.3891724 C156.589835,16.2727069 156.767054,16.1152069 156.943671,15.916069 L157.11004,16.0820172 C156.888215,16.4579655 156.585013,16.7566724 156.198023,16.9781379 C155.811033,17.199 155.341462,17.309431 154.789309,17.309431 C154.082239,17.309431 153.532497,17.1332241 153.140685,16.7783966 C152.747668,16.4247759 152.551762,15.8605517 152.551762,15.0863276 L152.551762,9.41210345 L151.408274,9.41210345 L151.408274,9.24615517 L151.806114,9.17977586 C152.147894,9.10253448 152.443863,8.99210345 152.692814,8.84787931 C152.941765,8.70425862 153.1871,8.51055172 153.430023,8.26736207 L154.789309,6.75753448 L154.955075,6.75753448 Z M149.369526,10.1591724 L149.265096,9.98554414 C149.091306,9.71104502 148.918842,9.51106897 148.748052,9.38736207 L148.748052,9.38736207 L148.654204,9.32783885 C148.453966,9.21801478 148.178504,9.16348276 147.828199,9.16348276 L147.828199,9.16348276 L147.642241,9.17223276 C147.335336,9.20139943 147.04357,9.30348276 146.767293,9.47848276 L146.767293,9.47848276 L146.650911,9.56139089 C146.544959,9.64628729 146.461038,9.74304406 146.399239,9.85166122 C146.3132,10.003021 146.270053,10.1773094 146.270053,10.3746034 C146.270053,10.7505517 146.411708,11.0492586 146.692607,11.2707241 C146.894111,11.4284828 147.164504,11.5779286 147.504007,11.7190616 L147.715753,11.8029338 L147.715753,11.8029338 L147.944537,11.884431 L148.690185,12.0992586 L148.946858,12.183897 C149.609041,12.4185945 150.092938,12.7252356 150.397279,13.1033966 L150.397279,13.1033966 L150.517674,13.2671762 C150.779926,13.658701 150.911456,14.1158319 150.911456,14.638569 L150.911456,14.638569 L150.904826,14.8370783 C150.869712,15.3539297 150.695133,15.8004207 150.381437,16.1765513 C150.260827,16.3215271 150.119663,16.4558774 149.957907,16.5798621 C149.322569,17.0662414 148.430444,17.309431 147.281531,17.309431 C146.740228,17.309431 146.253778,17.246069 145.822785,17.1187414 C145.392395,16.9920172 144.994555,16.8345172 144.629869,16.6456379 L144.646144,14.6711552 L144.81191,14.6711552 L145.375517,15.6668448 C145.61844,16.1097759 145.88668,16.4386552 146.179635,16.6540862 C146.471987,16.8701207 146.84451,16.9781379 147.297806,16.9781379 L147.492267,16.9725655 C147.933602,16.9465606 148.296941,16.8295388 148.582286,16.6215 L148.485136,16.686537 C148.518488,16.6657681 148.550891,16.6438882 148.582346,16.6208966 C148.907851,16.3831379 149.071809,16.0651207 149.071809,15.6668448 C149.071809,15.3296604 148.971729,15.048768 148.773479,14.8246456 L148.723338,14.7713276 L148.638772,14.6947112 C148.393509,14.4926015 147.990281,14.3080805 147.430359,14.1407241 L147.430359,14.1407241 L147.152362,14.0541207 L146.734802,13.9252931 C146.397844,13.8257241 146.096752,13.6983966 145.831525,13.5434612 L145.63927,13.4221716 C145.548397,13.3601495 145.462367,13.2943662 145.381181,13.2248181 C145.296727,13.1526277 145.217461,13.0763141 145.143444,12.9959828 C145.078051,12.924799 145.018183,12.850936 144.963843,12.7743911 C144.784728,12.5228433 144.66596,12.2413769 144.607233,11.9306502 C144.578012,11.7783865 144.563562,11.6191911 144.563562,11.4529655 C144.563562,10.7227931 144.851092,10.1036552 145.425548,9.59494828 C145.71686,9.33697843 146.072037,9.14434041 146.491158,9.0171129 C146.898468,8.89330592 147.366246,8.83158621 147.894505,8.83158621 L147.894505,8.83158621 L148.150131,8.83717172 C148.161584,8.83767858 148.173019,8.83822 148.184436,8.83879599 L147.894566,8.83158621 C148.020388,8.83158621 148.144104,8.83559772 148.265698,8.84360574 C148.340403,8.84838599 148.414288,8.85477553 148.487368,8.86267735 C148.510428,8.86538422 148.533765,8.86807856 148.55702,8.87092725 C148.630531,8.87968217 148.702967,8.89018028 148.774579,8.90222898 C148.798864,8.90656724 148.822805,8.91078071 148.846653,8.91516618 C148.936516,8.9314853 149.025294,8.95058162 149.112739,8.97218966 C149.109526,8.97138695 149.111163,8.97178787 149.112799,8.97218966 C149.493761,9.06632759 149.860858,9.20753448 150.214694,9.3952069 L150.115777,11.1874483 L149.950071,11.1874483 L149.369526,10.1591724 Z M139.773994,8.83146552 C140.75714,8.83146552 141.516652,9.07224138 142.053133,9.55318966 C142.588408,10.0341379 142.856649,10.8168103 142.856649,11.9006034 L142.856649,15.5677586 C142.856649,16.0656034 143.088722,16.3142241 143.552868,16.3142241 L143.917555,16.3142241 L144.067046,16.4469828 C143.856673,16.7125 143.627011,16.917069 143.378663,17.0606897 C143.130314,17.2043103 142.778889,17.2767241 142.326196,17.2767241 C141.839746,17.2767241 141.456374,17.1632759 141.174269,16.9363793 C140.892767,16.7094828 140.707109,16.4083621 140.619102,16.0324138 C140.287569,16.3860345 139.948199,16.6877586 139.599788,16.9363793 C139.251377,17.185 138.801698,17.3093103 138.248941,17.3093103 C137.608781,17.3093103 137.069286,17.127069 136.633471,16.7619828 C136.19645,16.3975 135.978844,15.8718966 135.978844,15.1857759 C135.978844,14.6662069 136.243468,14.1882759 136.773921,13.7507759 C137.304374,13.3138793 138.139234,12.985 139.276694,12.7641379 C139.453311,12.7303448 139.652231,12.6947414 139.873454,12.6561207 C140.094074,12.6168966 140.32675,12.5758621 140.569673,12.5312069 L140.569673,11.2205172 C140.569673,10.4686207 140.478049,9.94 140.296008,9.63586207 C140.113966,9.33232759 139.828847,9.18025862 139.443063,9.18025862 C139.177234,9.18025862 138.967464,9.26594828 138.812548,9.43672414 C138.657631,9.6087069 138.558774,9.90439655 138.514771,10.325 L138.481015,10.5072414 C138.459314,10.9827586 138.342976,11.3315517 138.133206,11.5524138 C137.922833,11.7738793 137.663635,11.8843103 137.354405,11.8843103 C137.066875,11.8843103 136.829377,11.7956034 136.641307,11.6187931 C136.45384,11.4419828 136.359806,11.2042241 136.359806,10.9049138 C136.359806,10.4517241 136.517133,10.0703448 136.832391,9.76077586 C137.147046,9.45060345 137.564175,9.21887931 138.083778,9.0637931 C138.602175,8.9087069 139.166384,8.83146552 139.773994,8.83146552 Z M132.216486,8.83152586 C133.001315,8.83152586 133.578183,9.01980172 133.948897,9.39514655 C134.318406,9.77169828 134.504064,10.3630776 134.504064,11.1710948 L134.504064,16.0318707 C134.504064,16.4633362 134.702381,16.7342845 135.100221,16.845319 L135.282866,16.8954052 L135.282866,17.06075 L131.45396,17.06075 L131.45396,16.8954052 L131.620329,16.845319 C131.829496,16.7783362 131.976576,16.6793707 132.059158,16.5466121 C132.14174,16.4138534 132.183332,16.2370431 132.183332,16.0155776 L132.183332,10.9381638 C132.183332,10.4735086 132.100751,10.1560948 131.934984,9.98411207 C131.769217,9.81333621 131.503991,9.72764655 131.139305,9.72764655 C130.851775,9.72764655 130.573287,9.79100862 130.302636,9.91833621 C130.031381,10.0456638 129.747468,10.23575 129.448486,10.4904052 C129.503942,10.6672155 129.540109,10.8615259 129.556385,11.0709224 C129.57266,11.2815259 129.581702,11.5023879 129.581702,11.7347155 L129.581702,16.0318707 C129.592552,16.4633362 129.791472,16.7342845 130.177859,16.845319 L130.32735,16.8954052 L130.32735,17.06075 L126.482169,17.06075 L126.482169,16.8954052 L126.714242,16.8290259 C126.924012,16.7620431 127.070489,16.6654914 127.153674,16.5381638 C127.236256,16.4114397 127.277848,16.2370431 127.277848,16.0155776 L127.277848,10.9550603 C127.277848,10.5127328 127.197677,10.1977328 127.037336,10.0088534 C126.876994,9.82178448 126.603932,9.72764655 126.216942,9.72764655 C125.962566,9.72764655 125.708792,9.79100862 125.454416,9.91833621 C125.20004,10.0456638 124.935416,10.2309224 124.659339,10.4735086 L124.659339,16.0318707 C124.659339,16.4633362 124.852231,16.7342845 125.239221,16.845319 L125.388712,16.8954052 L125.388712,17.06075 L121.494102,17.06075 L121.494102,16.8954052 L121.725573,16.8290259 C121.935343,16.7735086 122.082423,16.6793707 122.165005,16.5466121 C122.247587,16.4138534 122.294604,16.2370431 122.306057,16.0155776 L122.306057,10.8223017 C122.306057,10.5791121 122.266876,10.3992845 122.189719,10.2834224 C122.11196,10.1669569 121.963071,10.0866983 121.742451,10.0426466 L121.494102,9.97626724 L121.494102,9.81031897 L124.327806,8.84781897 L124.493573,9.01376724 L124.626186,10.1422155 C124.990872,9.77712931 125.407399,9.46756034 125.87697,9.21290517 C126.346541,8.95885345 126.835402,8.83152586 127.344155,8.83152586 C127.874608,8.83152586 128.299573,8.93893966 128.619653,9.15497414 C128.940939,9.37040517 129.183862,9.70531897 129.349629,10.1585086 C129.780622,9.74937069 130.247179,9.42592241 130.749904,9.18816379 C131.252629,8.95040517 131.741489,8.83152586 132.216486,8.83152586 Z M171.478384,8.83152586 C171.898526,8.83152586 172.218607,8.94738793 172.43983,9.17971552 C172.661053,9.4120431 172.77076,9.70531897 172.77076,10.0589397 C172.77076,10.4354914 172.664067,10.7251466 172.447666,10.930319 C172.232471,11.1348879 171.975683,11.2374741 171.677303,11.2374741 C171.213157,11.2374741 170.804467,11.0045431 170.451234,10.5398879 L170.417478,10.5073017 C170.307168,10.3522155 170.180582,10.2665259 170.036516,10.2502328 C169.893053,10.2333362 169.759837,10.3027328 169.638676,10.4572155 C169.528366,10.5567845 169.437345,10.6756638 169.365011,10.8138534 C169.293279,10.9520431 169.224561,11.1101466 169.158255,11.2869569 L169.158255,15.9160086 C169.158255,16.3583362 169.351749,16.6347155 169.738136,16.74575 L170.268589,16.8954052 L170.268589,17.06075 L165.97614,17.06075 L165.97614,16.8954052 L166.224488,16.8290259 C166.445711,16.7620431 166.597614,16.6624741 166.680798,16.5297155 C166.76338,16.3969569 166.804972,16.2255776 166.804972,16.0155776 L166.804972,10.8223017 C166.804972,10.5791121 166.76338,10.3992845 166.680798,10.2834224 C166.597614,10.1669569 166.445711,10.0866983 166.224488,10.0426466 L165.97614,9.97626724 L165.97614,9.81031897 L168.826722,8.84781897 L168.992488,9.01376724 L169.141979,10.4409224 L169.141979,10.573681 C169.296293,10.2641121 169.498227,9.97928448 169.746575,9.71919828 C169.994924,9.45911207 170.271603,9.24609483 170.575408,9.08014655 C170.879213,8.91419828 171.180607,8.83152586 171.478384,8.83152586 Z M140.569673,12.8631034 C140.45876,12.885431 140.34845,12.9077586 140.23814,12.9294828 C140.127227,12.9518103 140.000642,12.9741379 139.856576,12.9958621 C139.348426,13.1286207 138.94275,13.3525 138.638945,13.6675 C138.334537,13.9831034 138.182635,14.4061207 138.182635,14.9371552 C138.182635,15.3909483 138.288123,15.7312931 138.497893,15.9575862 C138.707663,16.1844828 138.962039,16.297931 139.259816,16.297931 C139.481039,16.297931 139.688398,16.245431 139.88129,16.1398276 C140.075387,16.0348276 140.303844,15.8718966 140.569673,15.650431 L140.569673,12.8631034 Z M161.683871,9.16348276 L161.527448,9.17152874 C161.324107,9.19298467 161.141664,9.25735249 160.980117,9.36463218 L160.862875,9.45313793 L160.78025,9.53279075 C160.592976,9.73500485 160.444239,10.0516832 160.332422,10.4820172 C160.219901,10.9197184 160.152627,11.5171471 160.13187,12.2734557 L160.126268,12.5645172 L162.959972,12.5645172 L162.984208,12.2702493 C163.054352,11.3127047 163.018031,10.588682 162.87385,10.0992288 L162.827359,9.95943103 L162.768594,9.82120058 C162.557664,9.38241978 162.19624,9.16348276 161.683871,9.16348276 Z M113.813505,0.000120689656 L113.870554,0.00132324424 C113.912,0.00247394112 113.9532,0.00440256841 113.994139,0.00709887591 C114.006923,0.00792046912 114.015351,0.00852341991 114.023767,0.00915887114 C114.073119,0.0129028252 114.121635,0.0176818978 114.169752,0.0235415797 C114.18751,0.0257331172 114.204918,0.0280088817 114.222273,0.0304259488 C114.263991,0.0361822778 114.305643,0.0428379309 114.346967,0.0503087816 C114.366692,0.0539531699 114.386433,0.0577276775 114.406097,0.0616881416 C114.440215,0.0684649694 114.473851,0.0758318316 114.50725,0.0837440408 C114.538523,0.0912678642 114.570015,0.0992716089 114.601286,0.107760539 C114.62665,0.114507709 114.651903,0.121717185 114.677007,0.12924392 C114.697788,0.135627298 114.718198,0.141993786 114.738507,0.148570184 C114.779273,0.161606677 114.819679,0.175664946 114.859659,0.190558186 C114.870337,0.194709926 114.881381,0.198899695 114.892392,0.203153208 C114.925671,0.215832425 114.958254,0.229103712 114.990533,0.242936134 C115.023834,0.257391768 115.057233,0.27245545 115.09029,0.288122623 C115.109128,0.296853829 115.127741,0.305921036 115.146242,0.315180385 C115.17462,0.329584663 115.20271,0.344226603 115.230529,0.359313733 C115.251738,0.370609546 115.273014,0.382496473 115.294127,0.394645259 C115.320776,0.410189554 115.346778,0.425707254 115.372522,0.441624645 C115.398524,0.45749327 115.424586,0.474188804 115.45037,0.491297319 C115.470057,0.504559468 115.489732,0.517964477 115.509239,0.531611358 C115.532526,0.547709549 115.555177,0.564056379 115.577593,0.580732218 C115.601558,0.598748902 115.625547,0.617177618 115.649255,0.635986548 C115.671787,0.653675174 115.694154,0.671970095 115.716259,0.690606975 C115.736095,0.707510307 115.755728,0.724512894 115.775146,0.741787762 C115.797768,0.761748543 115.819819,0.781986798 115.84158,0.802580637 C115.861085,0.821191004 115.880781,0.840347616 115.90023,0.85979888 C115.918338,0.877763218 115.936204,0.896103908 115.953851,0.914696331 C115.978482,0.940776818 116.002723,0.967247267 116.026529,0.994201193 C116.038335,1.00745181 116.050096,1.02101268 116.061747,1.03469275 C116.083624,1.06048664 116.104891,1.08630977 116.125774,1.11253776 C116.145845,1.13765297 116.166123,1.16398256 116.186016,1.19070187 C116.200749,1.21054778 116.215082,1.23027956 116.229207,1.25021702 C116.249915,1.27942187 116.270044,1.30890958 116.289723,1.3388262 C116.301506,1.35673708 116.313154,1.37483832 116.324638,1.39309237 C116.373153,1.47025123 116.418819,1.55028174 116.461389,1.63292729 C116.500291,1.7082592 116.536628,1.78595262 116.570268,1.86573689 C116.602981,1.94363356 116.633526,2.02432811 116.661338,2.10696405 C116.713551,2.26138623 116.756039,2.42265185 116.788261,2.59012069 L116.788261,2.59012069 L116.80255,2.62619349 L116.80255,2.62619349 L116.848781,2.695 L116.848781,3.38232759 C116.70434,3.99040774 116.484891,4.55230139 116.102169,5.01377667 C115.93973,5.20941739 115.748943,5.38645607 115.522408,5.54158621 L115.522408,5.54158621 L115.344261,5.65688195 C114.747771,6.02076009 114.125012,6.17950116 113.488787,6.1113009 L113.297252,6.08389009 C113.16947,6.06112877 113.041204,6.02920259 112.912558,5.9879371 L112.719673,5.91913327 L112.719673,5.91913327 L112.525951,5.83606897 L112.339242,5.74282309 C111.541444,5.31581136 111.025869,4.65374252 110.818359,3.77509494 C110.789152,3.65231873 110.766135,3.52544274 110.749175,3.39439655 C110.604346,2.27173235 111.101402,1.27493326 111.868422,0.659217208 C112.269574,0.33679253 112.7449,0.118876847 113.240857,0.0417586207 L113.240857,0.0417586207 L113.410419,0.0198333333 C113.522761,0.00789846743 113.633674,0.00132758621 113.742979,0.000120689656 L113.742979,0.000120689656 L113.813505,0.000120689656 Z" id="Combined-Shape"></path>
            </g>
        </g>
    </g>
</svg>